# xmcd CD database file
#
# Track frame offsets:
# 150
# 17245
# 36103
# 51429
# 72291
# 88672
# 108722
# 125748
# 137682
# 161115
# 189159
# 207750
# 227330
# 253848
# 273005
# 296727
#
# Disc length: 4306 seconds
# Revision: 2
# Processed by: cddbd v1.5.2PL0 Copyright (c) Steve Scherf et al.
# Submitted via: MusicBin 0.4
#
DISCID=eb10d010
DTITLE=Carolyn Owen - Carolyn Owen
DYEAR=2001
DGENRE=Country
TTITLE0=Love Me Like a Dog
TTITLE1=Hi-Time
TTITLE2=Get Over It
TTITLE3=Merci Beaucoup
TTITLE4=You Do Me Good
TTITLE5=Count on the Blues
TTITLE6=Make Me Forget
TTITLE7=Roses in December
TTITLE8=Can't Find It There
TTITLE9=Under My Skin
TTITLE10=Shoulders of the Wind
TTITLE11=Waiting for Tomorrow
TTITLE12=Silver Lion
TTITLE13=Piano Cry
TTITLE14=Take Me Downtown
TTITLE15=Here in Spirit
EXTD=
EXTT0=
EXTT1=
EXTT2=
EXTT3=
EXTT4=
EXTT5=
EXTT6=
EXTT7=
EXTT8=
EXTT9=
EXTT10=
EXTT11=
EXTT12=
EXTT13=
EXTT14=
EXTT15=
PLAYORDER=
